<svg id="fill" height="512" viewBox="0 0 64 64" width="512" xmlns="http://www.w3.org/2000/svg"><path d="m49 10.566h8v34h-8z" fill="#2298d1" transform="matrix(.985 -.171 .171 .985 -3.935 9.474)"/><path d="m7 11h10v34h-10z" fill="#f8f8fe"/><path d="m14 11h3v34h-3z" fill="#e3e3ff"/><path d="m17 15h8v30h-8z" fill="#af1b1b"/><path d="m25 13h12v32h-12z" fill="#f8cc5c"/><path d="m37 7h8v38h-8z" fill="#b1a6d8"/><path d="m17 20h8v14h-8z" fill="#ce3d36"/><path d="m17 38h8v7h-8z" fill="#ce3d36"/><path d="m29 21h4v14h-4z" fill="#fff"/><path d="m25 41h12v4h-12z" fill="#d8aa44"/><path d="m25 13h12v4h-12z" fill="#d8aa44"/><path d="m10 15h4v2h-4z" fill="#b1a6d8"/><path d="m10 19h4v2h-4z" fill="#b1a6d8"/><path d="m7 41h10v4h-10z" fill="#b1a6d8"/><g fill="#fff"><path d="m40 12h2v2h-2z"/><path d="m40 16h2v11h-2z"/><path d="m40 29h2v2h-2z"/><path d="m40 33h2v4h-2z"/></g><path d="m48.145 20.64h8v4h-8z" fill="#f8f8fe" transform="matrix(.985 -.171 .171 .985 -3.105 9.256)"/><path d="m53.882 37.404h2v2h-2z" fill="#f8f8fe" transform="matrix(.985 -.171 .171 .985 -5.756 9.944)"/><path d="m26 48h-22v-32h-2v33a1 1 0 0 0 1 1v6a6.994 6.994 0 0 0 6.92-6h16.08z" fill="#376de3"/><path d="m54 49a7 7 0 0 0 7 7v-7z" fill="#376de3"/><path d="m33 20h-4a1 1 0 0 0 -1 1v14a1 1 0 0 0 1 1h4a1 1 0 0 0 1-1v-14a1 1 0 0 0 -1-1zm-1 14h-2v-12h2z"/><path d="m10 15h4v2h-4z"/><path d="m10 19h4v2h-4z"/><path d="m40 12h2v2h-2z"/><path d="m40 16h2v11h-2z"/><path d="m40 29h2v2h-2z"/><path d="m40 33h2v4h-2z"/><path d="m60.667 44.207a1 1 0 0 0 .168-.747l-5.817-33.5a1.006 1.006 0 0 0 -1.157-.815l-7.861 1.368v-3.513a1 1 0 0 0 -1-1h-8a1 1 0 0 0 -1 1v5h-11a1 1 0 0 0 -1 1v1h-6v-3a1 1 0 0 0 -1-1h-10a1 1 0 0 0 -1 1v34a1 1 0 0 0 1 1h38a1 1 0 0 0 1-1v-28.52l4.982 28.691a1 1 0 0 0 .985.829 1.017 1.017 0 0 0 .172-.015l7.882-1.368a1 1 0 0 0 .646-.41zm-44.667-.207h-8v-2h8zm0-4h-8v-28h8zm8 4h-6v-5h6zm0-7h-6v-2h6zm0-4h-6v-12h6zm0-14h-6v-3h6zm12 25h-10v-2h8v-2h-8v-22h8v-2h-8v-2h10zm8 0h-6v-36h6zm3.307-31.685 5.911-1.026 1.369 7.882-5.911 1.029zm1.711 9.853 5.911-1.026.342 1.97-5.911 1.027zm3.764 21.676-3.082-17.735 5.911-1.026 3.08 17.734z"/><path d="m53.882 37.404h2v2h-2z" transform="matrix(.985 -.171 .171 .985 -5.762 9.958)"/><path d="m3 57a8.008 8.008 0 0 0 7.931-7h15.069v-2h-22v-32h-2v40a1 1 0 0 0 1 1zm1-7h4.917a6.017 6.017 0 0 1 -4.917 4.917z"/><path d="m61 48h-7a1 1 0 0 0 -1 1 8.009 8.009 0 0 0 8 8 1 1 0 0 0 1-1v-7a1 1 0 0 0 -1-1zm-1 6.917a6.017 6.017 0 0 1 -4.917-4.917h4.917z"/></svg>